<mxfile host="Electron" agent="Mozilla/5.0 (X11; Linux x86_64) AppleWebKit/537.36 (KHTML, like Gecko) draw.io/26.0.16 Chrome/132.0.6834.196 Electron/34.2.0 Safari/537.36" version="26.0.16">
  <diagram name="Page-1" id="Urzp49iurwlNc5WynEXu">
    <mxGraphModel dx="644" dy="318" grid="1" gridSize="10" guides="1" tooltips="1" connect="1" arrows="1" fold="1" page="1" pageScale="1" pageWidth="850" pageHeight="1100" math="0" shadow="0">
      <root>
        <mxCell id="0" />
        <mxCell id="1" parent="0" />
        <mxCell id="REugOtekbO2Kej9O_d-B-3" value="" style="edgeStyle=orthogonalEdgeStyle;rounded=0;orthogonalLoop=1;jettySize=auto;html=1;" edge="1" parent="1" source="REugOtekbO2Kej9O_d-B-1">
          <mxGeometry relative="1" as="geometry">
            <mxPoint x="425" y="150" as="targetPoint" />
          </mxGeometry>
        </mxCell>
        <mxCell id="REugOtekbO2Kej9O_d-B-1" value="Main&amp;nbsp;" style="rounded=1;whiteSpace=wrap;html=1;arcSize=50;" vertex="1" parent="1">
          <mxGeometry x="365" y="50" width="120" height="60" as="geometry" />
        </mxCell>
        <mxCell id="REugOtekbO2Kej9O_d-B-24" value="" style="edgeStyle=orthogonalEdgeStyle;rounded=0;orthogonalLoop=1;jettySize=auto;html=1;" edge="1" parent="1" source="REugOtekbO2Kej9O_d-B-4">
          <mxGeometry relative="1" as="geometry">
            <mxPoint x="425" y="259.9999999999998" as="targetPoint" />
          </mxGeometry>
        </mxCell>
        <mxCell id="REugOtekbO2Kej9O_d-B-4" value="scanArray()" style="rounded=0;whiteSpace=wrap;html=1;" vertex="1" parent="1">
          <mxGeometry x="365" y="150" width="120" height="60" as="geometry" />
        </mxCell>
        <mxCell id="REugOtekbO2Kej9O_d-B-8" value="" style="edgeStyle=orthogonalEdgeStyle;rounded=0;orthogonalLoop=1;jettySize=auto;html=1;" edge="1" parent="1" source="REugOtekbO2Kej9O_d-B-6" target="REugOtekbO2Kej9O_d-B-7">
          <mxGeometry relative="1" as="geometry" />
        </mxCell>
        <mxCell id="REugOtekbO2Kej9O_d-B-6" value="scanArray()" style="rounded=1;whiteSpace=wrap;html=1;arcSize=50;" vertex="1" parent="1">
          <mxGeometry x="1215" y="50" width="120" height="60" as="geometry" />
        </mxCell>
        <mxCell id="REugOtekbO2Kej9O_d-B-12" value="" style="edgeStyle=orthogonalEdgeStyle;rounded=0;orthogonalLoop=1;jettySize=auto;html=1;" edge="1" parent="1" source="REugOtekbO2Kej9O_d-B-7" target="REugOtekbO2Kej9O_d-B-11">
          <mxGeometry relative="1" as="geometry" />
        </mxCell>
        <mxCell id="REugOtekbO2Kej9O_d-B-7" value="Enter len" style="shape=parallelogram;perimeter=parallelogramPerimeter;whiteSpace=wrap;html=1;fixedSize=1;" vertex="1" parent="1">
          <mxGeometry x="1215" y="160" width="120" height="60" as="geometry" />
        </mxCell>
        <mxCell id="REugOtekbO2Kej9O_d-B-15" value="" style="edgeStyle=orthogonalEdgeStyle;rounded=0;orthogonalLoop=1;jettySize=auto;html=1;" edge="1" parent="1" source="REugOtekbO2Kej9O_d-B-9" target="REugOtekbO2Kej9O_d-B-14">
          <mxGeometry relative="1" as="geometry" />
        </mxCell>
        <mxCell id="REugOtekbO2Kej9O_d-B-44" style="edgeStyle=orthogonalEdgeStyle;rounded=0;orthogonalLoop=1;jettySize=auto;html=1;" edge="1" parent="1" source="REugOtekbO2Kej9O_d-B-9" target="REugOtekbO2Kej9O_d-B-21">
          <mxGeometry relative="1" as="geometry">
            <Array as="points">
              <mxPoint x="1410" y="390" />
              <mxPoint x="1410" y="740" />
              <mxPoint x="1300" y="740" />
            </Array>
          </mxGeometry>
        </mxCell>
        <mxCell id="REugOtekbO2Kej9O_d-B-9" value="repat len times (for i)&amp;nbsp;" style="shape=hexagon;perimeter=hexagonPerimeter2;whiteSpace=wrap;html=1;fixedSize=1;" vertex="1" parent="1">
          <mxGeometry x="1173" y="350" width="205" height="80" as="geometry" />
        </mxCell>
        <mxCell id="REugOtekbO2Kej9O_d-B-13" value="" style="edgeStyle=orthogonalEdgeStyle;rounded=0;orthogonalLoop=1;jettySize=auto;html=1;" edge="1" parent="1" source="REugOtekbO2Kej9O_d-B-11" target="REugOtekbO2Kej9O_d-B-9">
          <mxGeometry relative="1" as="geometry" />
        </mxCell>
        <mxCell id="REugOtekbO2Kej9O_d-B-11" value="arr[len]&lt;div&gt;i = 0&amp;nbsp;&lt;/div&gt;" style="rounded=0;whiteSpace=wrap;html=1;" vertex="1" parent="1">
          <mxGeometry x="1215" y="250" width="120" height="60" as="geometry" />
        </mxCell>
        <mxCell id="REugOtekbO2Kej9O_d-B-17" value="" style="edgeStyle=orthogonalEdgeStyle;rounded=0;orthogonalLoop=1;jettySize=auto;html=1;" edge="1" parent="1" source="REugOtekbO2Kej9O_d-B-14" target="REugOtekbO2Kej9O_d-B-16">
          <mxGeometry relative="1" as="geometry" />
        </mxCell>
        <mxCell id="REugOtekbO2Kej9O_d-B-14" value="Enter `i` element&amp;nbsp;" style="shape=parallelogram;perimeter=parallelogramPerimeter;whiteSpace=wrap;html=1;fixedSize=1;" vertex="1" parent="1">
          <mxGeometry x="1216" y="490" width="120" height="60" as="geometry" />
        </mxCell>
        <mxCell id="REugOtekbO2Kej9O_d-B-18" style="edgeStyle=orthogonalEdgeStyle;rounded=0;orthogonalLoop=1;jettySize=auto;html=1;entryX=0;entryY=0.5;entryDx=0;entryDy=0;" edge="1" parent="1">
          <mxGeometry relative="1" as="geometry">
            <mxPoint x="1275.004482758621" y="660" as="sourcePoint" />
            <mxPoint x="1172.97" y="380.0000000000001" as="targetPoint" />
            <Array as="points">
              <mxPoint x="1275" y="720" />
              <mxPoint x="1100" y="720" />
              <mxPoint x="1100" y="380" />
            </Array>
          </mxGeometry>
        </mxCell>
        <mxCell id="REugOtekbO2Kej9O_d-B-16" value="array[i]" style="shape=parallelogram;perimeter=parallelogramPerimeter;whiteSpace=wrap;html=1;fixedSize=1;" vertex="1" parent="1">
          <mxGeometry x="1215" y="610" width="120" height="60" as="geometry" />
        </mxCell>
        <mxCell id="REugOtekbO2Kej9O_d-B-21" value="END" style="rounded=1;whiteSpace=wrap;html=1;arcSize=50;" vertex="1" parent="1">
          <mxGeometry x="1240" y="800" width="120" height="60" as="geometry" />
        </mxCell>
        <mxCell id="REugOtekbO2Kej9O_d-B-28" value="" style="edgeStyle=orthogonalEdgeStyle;rounded=0;orthogonalLoop=1;jettySize=auto;html=1;" edge="1" parent="1" source="REugOtekbO2Kej9O_d-B-25" target="REugOtekbO2Kej9O_d-B-27">
          <mxGeometry relative="1" as="geometry" />
        </mxCell>
        <mxCell id="REugOtekbO2Kej9O_d-B-25" value="arrayMean()" style="rounded=1;whiteSpace=wrap;html=1;arcSize=50;" vertex="1" parent="1">
          <mxGeometry x="2065" y="50" width="120" height="60" as="geometry" />
        </mxCell>
        <mxCell id="REugOtekbO2Kej9O_d-B-30" value="" style="edgeStyle=orthogonalEdgeStyle;rounded=0;orthogonalLoop=1;jettySize=auto;html=1;" edge="1" parent="1" source="REugOtekbO2Kej9O_d-B-27" target="REugOtekbO2Kej9O_d-B-29">
          <mxGeometry relative="1" as="geometry" />
        </mxCell>
        <mxCell id="REugOtekbO2Kej9O_d-B-27" value="mean = 0&lt;div&gt;sum = 0&amp;nbsp;&lt;/div&gt;" style="rounded=0;whiteSpace=wrap;html=1;" vertex="1" parent="1">
          <mxGeometry x="2065" y="180" width="120" height="60" as="geometry" />
        </mxCell>
        <mxCell id="REugOtekbO2Kej9O_d-B-32" value="" style="edgeStyle=orthogonalEdgeStyle;rounded=0;orthogonalLoop=1;jettySize=auto;html=1;" edge="1" parent="1" source="REugOtekbO2Kej9O_d-B-29" target="REugOtekbO2Kej9O_d-B-31">
          <mxGeometry relative="1" as="geometry" />
        </mxCell>
        <mxCell id="REugOtekbO2Kej9O_d-B-35" style="edgeStyle=orthogonalEdgeStyle;rounded=0;orthogonalLoop=1;jettySize=auto;html=1;" edge="1" parent="1" source="REugOtekbO2Kej9O_d-B-29">
          <mxGeometry relative="1" as="geometry">
            <mxPoint x="2340.0000000000005" y="470" as="targetPoint" />
          </mxGeometry>
        </mxCell>
        <mxCell id="REugOtekbO2Kej9O_d-B-29" value="repeat len times (for i)" style="shape=hexagon;perimeter=hexagonPerimeter2;whiteSpace=wrap;html=1;fixedSize=1;" vertex="1" parent="1">
          <mxGeometry x="2026" y="320" width="198" height="80" as="geometry" />
        </mxCell>
        <mxCell id="REugOtekbO2Kej9O_d-B-33" style="edgeStyle=orthogonalEdgeStyle;rounded=0;orthogonalLoop=1;jettySize=auto;html=1;entryX=0;entryY=0.5;entryDx=0;entryDy=0;" edge="1" parent="1" source="REugOtekbO2Kej9O_d-B-31" target="REugOtekbO2Kej9O_d-B-29">
          <mxGeometry relative="1" as="geometry">
            <Array as="points">
              <mxPoint x="2125" y="560" />
              <mxPoint x="1970" y="560" />
              <mxPoint x="1970" y="360" />
            </Array>
          </mxGeometry>
        </mxCell>
        <mxCell id="REugOtekbO2Kej9O_d-B-31" value="sum = sum + array[i]" style="rounded=0;whiteSpace=wrap;html=1;" vertex="1" parent="1">
          <mxGeometry x="2065" y="470" width="120" height="60" as="geometry" />
        </mxCell>
        <mxCell id="REugOtekbO2Kej9O_d-B-38" value="" style="edgeStyle=orthogonalEdgeStyle;rounded=0;orthogonalLoop=1;jettySize=auto;html=1;" edge="1" parent="1" source="REugOtekbO2Kej9O_d-B-36" target="REugOtekbO2Kej9O_d-B-37">
          <mxGeometry relative="1" as="geometry" />
        </mxCell>
        <mxCell id="REugOtekbO2Kej9O_d-B-36" value="mean = sum / len" style="shape=parallelogram;perimeter=parallelogramPerimeter;whiteSpace=wrap;html=1;fixedSize=1;" vertex="1" parent="1">
          <mxGeometry x="2250" y="470" width="180" height="60" as="geometry" />
        </mxCell>
        <mxCell id="REugOtekbO2Kej9O_d-B-37" value="END" style="rounded=1;whiteSpace=wrap;html=1;arcSize=50;" vertex="1" parent="1">
          <mxGeometry x="2280" y="570" width="120" height="60" as="geometry" />
        </mxCell>
        <mxCell id="REugOtekbO2Kej9O_d-B-41" value="" style="edgeStyle=orthogonalEdgeStyle;rounded=0;orthogonalLoop=1;jettySize=auto;html=1;" edge="1" parent="1" source="REugOtekbO2Kej9O_d-B-39" target="REugOtekbO2Kej9O_d-B-40">
          <mxGeometry relative="1" as="geometry" />
        </mxCell>
        <mxCell id="REugOtekbO2Kej9O_d-B-39" value="arrayMean()" style="rounded=0;whiteSpace=wrap;html=1;" vertex="1" parent="1">
          <mxGeometry x="365" y="260" width="120" height="60" as="geometry" />
        </mxCell>
        <mxCell id="REugOtekbO2Kej9O_d-B-43" value="" style="edgeStyle=orthogonalEdgeStyle;rounded=0;orthogonalLoop=1;jettySize=auto;html=1;" edge="1" parent="1" source="REugOtekbO2Kej9O_d-B-40" target="REugOtekbO2Kej9O_d-B-42">
          <mxGeometry relative="1" as="geometry" />
        </mxCell>
        <mxCell id="REugOtekbO2Kej9O_d-B-40" value="mean" style="shape=parallelogram;perimeter=parallelogramPerimeter;whiteSpace=wrap;html=1;fixedSize=1;" vertex="1" parent="1">
          <mxGeometry x="365" y="370" width="120" height="60" as="geometry" />
        </mxCell>
        <mxCell id="REugOtekbO2Kej9O_d-B-42" value="END" style="rounded=1;whiteSpace=wrap;html=1;arcSize=50;" vertex="1" parent="1">
          <mxGeometry x="365" y="480" width="120" height="60" as="geometry" />
        </mxCell>
      </root>
    </mxGraphModel>
  </diagram>
</mxfile>
